<svg
    xmlns="http://www.w3.org/2000/svg"
    width="139"
    height="140"
    viewBox="0 0 139 140"
>
    <style>
        #logo-fill {
            fill: hsl(240, 10%, 3.9%);
        }
        @media (prefers-color-scheme: dark) {
            #logo-fill {
                fill: hsl(0, 0%, 98%);
            }
        }
    </style>
    <path
        fillRule="evenodd"
        clipRule="evenodd"
        d="M35.563 89.1153C38.8296 88.735 41.1385 87.9701 41.2388 87.1672C41.48 89.1554 41.7761 91.1343 42.1266 93.1017C42.5177 95.2976 42.9765 97.4793 43.502 99.6435C44.9411 105.571 46.8805 111.368 49.3002 116.972C50.5098 119.774 51.8395 122.527 53.2867 125.224L54.6318 127.731L67.5969 120.734C76.28 116.048 85.593 112.694 95.2238 110.763C99.1475 109.976 103.124 109.426 107.132 109.118C106.339 105.181 105.702 101.216 105.222 97.2337C104.496 91.2016 104.132 85.1277 104.132 79.0449L104.132 72.731C104.132 72.731 126.132 70.2311 126.132 48.7311C126.132 36.1667 115.374 35.2137 106.432 36.5918C100.073 37.5719 94.6319 39.7311 94.6319 39.7311C94.6319 39.7311 94.5264 34.0321 92.1334 27.8707C89.3178 20.621 83.3354 12.731 70.6319 12.731C58.0421 12.731 54.3497 23.0634 53.6348 32.6573C53.0152 40.9715 54.6318 48.7311 54.6318 48.7311C54.6318 48.7311 48.8867 42.1652 41.6025 40.6002C37.5158 39.7222 32.9446 40.4182 28.6318 44.7311C24.9424 48.4205 23.8997 51.9209 24.2251 54.9997C24.9579 61.9348 32.6319 66.731 32.6319 66.731C32.6319 66.731 23.8322 65.851 17.9067 69.3444C14.8991 71.1175 12.6319 74.0174 12.6319 78.731C12.6319 86.4033 21.5407 89.0189 29.4157 89.3323C31.6182 89.4199 33.7398 89.3275 35.563 89.1153ZM31.5764 101.363C29.6111 101.381 27.5689 101.292 25.5292 101.075C21.1128 100.604 15.5352 99.4093 10.7041 96.3981C5.37736 93.0779 0.631903 87.194 0.631902 78.731C0.631903 71.9976 3.19194 66.3347 7.4919 62.2498C9.12474 60.6986 10.8884 59.4861 12.6495 58.5342C12.2491 56.6381 12.0676 54.5775 12.2248 52.3761C12.6589 46.2987 15.5513 40.841 20.1465 36.2458C25.082 31.3103 30.909 28.6981 37.0083 28.3169C38.7484 28.2082 40.4196 28.2861 42.0061 28.4983C42.7227 23.144 44.4423 16.5712 48.7137 11.0299C53.676 4.59242 61.1833 0.731042 70.6319 0.731043C78.9799 0.731043 85.9867 3.1889 91.528 7.37396C96.9113 11.4396 100.272 16.6436 102.372 21.273C102.923 22.4859 103.4 23.6879 103.813 24.8593C105.687 24.5452 107.68 24.3002 109.716 24.187C114.582 23.9167 121.514 24.2817 127.585 28.0876C134.637 32.5095 138.132 39.9852 138.132 48.7311C138.132 64.5677 129.605 74.0849 121.323 79.0731C119.551 80.1402 117.801 81.0016 116.157 81.6967C116.316 90.1104 117.232 98.4945 118.895 106.747C119.574 110.117 118.776 113.616 116.702 116.358C114.628 119.099 111.478 120.819 108.051 121.083C95.8792 122.018 84.0391 125.496 73.2961 131.294L60.331 138.291C57.5258 139.805 54.2336 140.141 51.1807 139.224C48.1278 138.307 45.565 136.214 44.0579 133.405L42.7128 130.898C37.7072 121.569 33.9674 111.637 31.5764 101.363Z"
        id="logo-fill"
    />
</svg>